<mxfile host="app.diagrams.net" modified="2023-11-16T14:42:44.314Z" agent="Mozilla/5.0 (Windows NT 10.0; Win64; x64) AppleWebKit/537.36 (KHTML, like Gecko) Chrome/116.0.0.0 Safari/537.36 OPR/102.0.0.0" etag="S6VioftKwQ8qPoey69nv" version="22.1.2" type="github">
  <diagram name="Страница — 1" id="TGaUvsAniQ4Ds_IP9tLr">
    <mxGraphModel dx="463" dy="514" grid="1" gridSize="10" guides="1" tooltips="1" connect="1" arrows="1" fold="1" page="1" pageScale="1" pageWidth="827" pageHeight="1169" math="0" shadow="0">
      <root>
        <mxCell id="0" />
        <mxCell id="1" parent="0" />
        <mxCell id="MTogWmYOFbYAcYgqlSyP-1" value="" style="rounded=0;whiteSpace=wrap;html=1;" vertex="1" parent="1">
          <mxGeometry x="260" y="190" width="210" height="260" as="geometry" />
        </mxCell>
        <mxCell id="MTogWmYOFbYAcYgqlSyP-2" value="Enter Name" style="rounded=0;whiteSpace=wrap;html=1;" vertex="1" parent="1">
          <mxGeometry x="292.5" y="240" width="145" height="20" as="geometry" />
        </mxCell>
        <mxCell id="MTogWmYOFbYAcYgqlSyP-3" value="&lt;font style=&quot;font-size: 14px;&quot;&gt;Sign up&lt;/font&gt;" style="text;html=1;strokeColor=none;fillColor=none;align=center;verticalAlign=middle;whiteSpace=wrap;rounded=0;" vertex="1" parent="1">
          <mxGeometry x="335" y="200" width="60" height="30" as="geometry" />
        </mxCell>
        <mxCell id="MTogWmYOFbYAcYgqlSyP-4" value="Enter Email" style="rounded=0;whiteSpace=wrap;html=1;" vertex="1" parent="1">
          <mxGeometry x="292.5" y="270" width="145" height="20" as="geometry" />
        </mxCell>
        <mxCell id="MTogWmYOFbYAcYgqlSyP-5" value="Enter Username" style="rounded=0;whiteSpace=wrap;html=1;" vertex="1" parent="1">
          <mxGeometry x="292.5" y="300" width="145" height="20" as="geometry" />
        </mxCell>
        <mxCell id="MTogWmYOFbYAcYgqlSyP-6" value="Enter Password" style="rounded=0;whiteSpace=wrap;html=1;" vertex="1" parent="1">
          <mxGeometry x="292.5" y="330" width="145" height="20" as="geometry" />
        </mxCell>
        <mxCell id="MTogWmYOFbYAcYgqlSyP-7" value="Repeat Password" style="rounded=0;whiteSpace=wrap;html=1;" vertex="1" parent="1">
          <mxGeometry x="292.5" y="360" width="145" height="20" as="geometry" />
        </mxCell>
        <mxCell id="MTogWmYOFbYAcYgqlSyP-8" value="Submit" style="rounded=0;whiteSpace=wrap;html=1;" vertex="1" parent="1">
          <mxGeometry x="313.25" y="400" width="103.5" height="40" as="geometry" />
        </mxCell>
        <mxCell id="MTogWmYOFbYAcYgqlSyP-12" value="&lt;font style=&quot;font-size: 14px;&quot;&gt;Users&lt;/font&gt;" style="text;html=1;strokeColor=none;fillColor=none;align=center;verticalAlign=middle;whiteSpace=wrap;rounded=0;" vertex="1" parent="1">
          <mxGeometry x="370" y="530" width="60" height="30" as="geometry" />
        </mxCell>
        <mxCell id="MTogWmYOFbYAcYgqlSyP-13" value="" style="rounded=1;whiteSpace=wrap;html=1;" vertex="1" parent="1">
          <mxGeometry x="180" y="570" width="440" height="120" as="geometry" />
        </mxCell>
        <mxCell id="MTogWmYOFbYAcYgqlSyP-14" value="" style="endArrow=none;html=1;rounded=0;entryX=0.998;entryY=0.317;entryDx=0;entryDy=0;entryPerimeter=0;" edge="1" parent="1" target="MTogWmYOFbYAcYgqlSyP-13">
          <mxGeometry width="50" height="50" relative="1" as="geometry">
            <mxPoint x="180" y="610" as="sourcePoint" />
            <mxPoint x="400" y="650" as="targetPoint" />
          </mxGeometry>
        </mxCell>
        <mxCell id="MTogWmYOFbYAcYgqlSyP-15" value="&lt;font style=&quot;font-size: 14px;&quot;&gt;id&lt;/font&gt;" style="text;html=1;strokeColor=none;fillColor=none;align=center;verticalAlign=middle;whiteSpace=wrap;rounded=0;" vertex="1" parent="1">
          <mxGeometry x="200" y="585" width="40" height="20" as="geometry" />
        </mxCell>
        <mxCell id="MTogWmYOFbYAcYgqlSyP-16" value="&lt;font style=&quot;font-size: 14px;&quot;&gt;Name&lt;/font&gt;" style="text;html=1;strokeColor=none;fillColor=none;align=center;verticalAlign=middle;whiteSpace=wrap;rounded=0;" vertex="1" parent="1">
          <mxGeometry x="273.25" y="585" width="40" height="20" as="geometry" />
        </mxCell>
        <mxCell id="MTogWmYOFbYAcYgqlSyP-17" value="&lt;font style=&quot;font-size: 14px;&quot;&gt;Email&lt;/font&gt;" style="text;html=1;strokeColor=none;fillColor=none;align=center;verticalAlign=middle;whiteSpace=wrap;rounded=0;" vertex="1" parent="1">
          <mxGeometry x="335" y="585" width="40" height="20" as="geometry" />
        </mxCell>
        <mxCell id="MTogWmYOFbYAcYgqlSyP-18" value="&lt;font style=&quot;font-size: 14px;&quot;&gt;Username&lt;/font&gt;" style="text;html=1;strokeColor=none;fillColor=none;align=center;verticalAlign=middle;whiteSpace=wrap;rounded=0;" vertex="1" parent="1">
          <mxGeometry x="416.75" y="585" width="40" height="20" as="geometry" />
        </mxCell>
        <mxCell id="MTogWmYOFbYAcYgqlSyP-19" value="&lt;font style=&quot;font-size: 14px;&quot;&gt;Action&lt;/font&gt;" style="text;html=1;strokeColor=none;fillColor=none;align=center;verticalAlign=middle;whiteSpace=wrap;rounded=0;" vertex="1" parent="1">
          <mxGeometry x="520" y="585" width="40" height="20" as="geometry" />
        </mxCell>
        <mxCell id="MTogWmYOFbYAcYgqlSyP-20" value="lietotāja numurs" style="text;html=1;strokeColor=none;fillColor=none;align=center;verticalAlign=middle;whiteSpace=wrap;rounded=0;" vertex="1" parent="1">
          <mxGeometry x="190" y="630" width="60" height="30" as="geometry" />
        </mxCell>
        <mxCell id="MTogWmYOFbYAcYgqlSyP-21" value="lietotāja vārds" style="text;html=1;strokeColor=none;fillColor=none;align=center;verticalAlign=middle;whiteSpace=wrap;rounded=0;" vertex="1" parent="1">
          <mxGeometry x="260" y="630" width="60" height="30" as="geometry" />
        </mxCell>
        <mxCell id="MTogWmYOFbYAcYgqlSyP-22" value="lietotāja &lt;br&gt;e-pasts" style="text;html=1;strokeColor=none;fillColor=none;align=center;verticalAlign=middle;whiteSpace=wrap;rounded=0;" vertex="1" parent="1">
          <mxGeometry x="325" y="630" width="60" height="30" as="geometry" />
        </mxCell>
        <mxCell id="MTogWmYOFbYAcYgqlSyP-23" value="lietotāja &lt;br&gt;lietotājvārds" style="text;html=1;strokeColor=none;fillColor=none;align=center;verticalAlign=middle;whiteSpace=wrap;rounded=0;" vertex="1" parent="1">
          <mxGeometry x="406.75" y="630" width="60" height="30" as="geometry" />
        </mxCell>
        <mxCell id="MTogWmYOFbYAcYgqlSyP-24" value="Block user" style="rounded=0;whiteSpace=wrap;html=1;" vertex="1" parent="1">
          <mxGeometry x="507.5" y="630" width="65" height="30" as="geometry" />
        </mxCell>
      </root>
    </mxGraphModel>
  </diagram>
</mxfile>
